<?xml version="1.0" encoding="UTF-8"?>
<svg version="1.1" xmlns="http://www.w3.org/2000/svg" width="559" height="557">
<path d="M0 0 C0.8353125 0.32871094 1.670625 0.65742188 2.53125 0.99609375 C11.39317349 4.94840222 18.07381873 11.43466221 24 19 C24.99 19.99 24.99 19.99 26 21 C26.99 21.99 26.99 21.99 28 23 C29.19625 22.525625 30.3925 22.05125 31.625 21.5625 C43.03430958 17.03811862 59.02778631 17.15813722 70.36328125 21.6796875 C82.60094171 27.80758267 91.59963493 36.92310866 96 50 C98.42608111 59.03715213 98.99240197 69.02279409 96 78 C96.71542969 77.95359375 97.43085938 77.9071875 98.16796875 77.859375 C112.16564346 77.35234409 125.58872073 82.07184024 136.1875 91.25 C149.24227397 103.64998907 154.9750085 117.29180841 156.046875 135.15625 C155.98866879 139.92915936 155.07684152 144.06166818 153.69140625 148.609375 C152.8610853 151.06554853 152.8610853 151.06554853 153 154 C152.34 154 151.68 154 151 154 C151.07734375 155.07314453 151.07734375 155.07314453 151.15625 156.16796875 C150.97397253 159.47174781 150.04972758 161.40676078 148.5 164.3125 C147.80390625 165.63701172 147.80390625 165.63701172 147.09375 166.98828125 C146.7328125 167.65214844 146.371875 168.31601563 146 169 C146.88042969 169.45890625 147.76085937 169.9178125 148.66796875 170.390625 C150.41013672 171.31101563 150.41013672 171.31101563 152.1875 172.25 C153.33605469 172.85328125 154.48460937 173.4565625 155.66796875 174.078125 C160.8297791 177.05539428 164.25139396 179.82345905 167.25 185 C167.75015625 185.845625 168.2503125 186.69125 168.765625 187.5625 C171.10669964 192.18538157 171.19231185 196.43968911 171.1875 201.5625 C171.18814453 202.27124268 171.18878906 202.97998535 171.18945312 203.71020508 C171.13841287 208.8345311 170.57338787 213.65901877 169.4375 218.66796875 C168.96974106 221.16129095 168.99174161 223.46880329 169 226 C168.54022375 227.64205802 168.07660053 229.28333539 167.578125 230.9140625 C165.74593497 237.5248022 164.69535963 244.14559168 165 251 C164.34 251 163.68 251 163 251 C163.03609375 251.96550781 163.0721875 252.93101562 163.109375 253.92578125 C163.10480714 258.48107584 162.20163651 262.74828216 161.25 267.1875 C160.88520946 268.94657163 160.5206329 270.70568764 160.15625 272.46484375 C159.96675781 273.36831543 159.77726562 274.27178711 159.58203125 275.20263672 C158.60898957 279.8792775 157.68167821 284.56497751 156.75 289.25 C156.41166803 290.94275026 156.07314606 292.63546256 155.734375 294.328125 C155.49203125 295.53984375 155.2496875 296.7515625 155 298 C155.66 298.33 156.32 298.66 157 299 C156.34 299.33 155.68 299.66 155 300 C154.41556975 302.62515512 153.9564362 305.18442519 153.5625 307.83984375 C153.37409546 309.03402672 153.37409546 309.03402672 153.18188477 310.25233459 C152.77949641 312.81282433 152.3893146 315.37499282 152 317.9375 C151.48250227 321.28047144 150.96005007 324.62265901 150.4375 327.96484375 C150.31342773 328.7672348 150.18935547 329.56962585 150.06152344 330.39633179 C149.29629064 335.29720148 148.43107408 340.15535726 147.33203125 344.99438477 C146.92597918 347.04303516 146.92597918 347.04303516 147.07421875 349.32006836 C146.97855011 352.77452434 145.98435145 355.69110029 145 359 C144.47501107 361.57767714 143.98052802 364.14465098 143.52734375 366.734375 C143.39936905 367.45304749 143.27139435 368.17171997 143.13954163 368.91217041 C142.87137086 370.42451869 142.60507556 371.93720062 142.34057617 373.45019531 C141.94083926 375.7309474 141.53234132 378.01000867 141.12304688 380.2890625 C139.72401222 388.17681795 138.51366217 395.99425469 138 404 C137.34 404 136.68 404 136 404 C136 407.63 136 411.26 136 415 C135.34 415 134.68 415 134 415 C133.97494385 415.58491211 133.9498877 416.16982422 133.92407227 416.77246094 C133.80777038 419.43184471 133.68519933 422.09090403 133.5625 424.75 C133.52318359 425.67039062 133.48386719 426.59078125 133.44335938 427.5390625 C133.40146484 428.42851562 133.35957031 429.31796875 133.31640625 430.234375 C133.27974854 431.05131836 133.24309082 431.86826172 133.20532227 432.70996094 C133 435 133 435 132.41772461 437.17285156 C131.77723959 439.08390165 131.77723959 439.08390165 133 441 C132.67 441.66 132.34 442.32 132 443 C131.01 443 130.02 443 129 443 C129.02320313 443.88042969 129.04640625 444.76085937 129.0703125 445.66796875 C129.08835937 446.82941406 129.10640625 447.99085938 129.125 449.1875 C129.14820313 450.33605469 129.17140625 451.48460937 129.1953125 452.66796875 C129.00393205 455.9329192 128.25658965 458.0274791 127 461 C127.33 461.66 127.66 462.32 128 463 C127.34 463 126.68 463 126 463 C125.83918945 464.02134033 125.67837891 465.04268066 125.51269531 466.0949707 C117.00647458 519.97262202 117.00647458 519.97262202 111 529 C110.58234375 529.62777344 110.1646875 530.25554688 109.734375 530.90234375 C103.19419359 539.49103026 93.41614794 544.14711357 83 546 C76.18170867 546.56782706 69.31657524 546.42110056 62.48071289 546.40405273 C60.40991346 546.40976231 58.33911718 546.41672884 56.26832581 546.42485046 C50.66913076 546.44273131 45.07009286 546.44162311 39.47087789 546.43590808 C34.78660191 546.43280909 30.1023558 546.43891653 25.41808408 546.44494683 C14.36308852 546.45897359 3.30817027 546.45744595 -7.74682617 546.44604492 C-19.13093996 546.43456353 -30.51481817 546.44864409 -41.89890093 546.4754414 C-51.69372585 546.49762979 -61.48847699 546.50422875 -71.28332525 546.49836498 C-77.12424811 546.49500199 -82.96501996 546.49736696 -88.80592155 546.51461601 C-94.29967784 546.53013324 -99.79308621 546.52607652 -105.28682899 546.50731087 C-107.29588125 546.50363832 -109.30495957 546.50669425 -111.31398773 546.51719666 C-125.58130335 546.58605197 -138.67364475 545.80165358 -150 536 C-158.02320521 527.56289928 -161.2962137 518.37712133 -163.125 507.0625 C-163.43298766 505.19802923 -163.74776022 503.33466261 -164.0703125 501.47265625 C-164.20195801 500.66062744 -164.33360352 499.84859863 -164.46923828 499.01196289 C-164.87502035 496.78941303 -164.87502035 496.78941303 -167 495 C-166.67 494.67 -166.34 494.34 -166 494 C-166.33 493.38125 -166.66 492.7625 -167 492.125 C-168 490 -168 490 -168 488 C-167.34 488 -166.68 488 -166 488 C-166.20496094 487.154375 -166.40992188 486.30875 -166.62109375 485.4375 C-168.08017562 479.29399739 -169.38371646 473.28609213 -170 467 C-170.66 467 -171.32 467 -172 467 C-171.81651505 466.46354858 -171.63303009 465.92709717 -171.44398499 465.37438965 C-170.87709513 462.3427164 -171.33222206 460.0425794 -171.89624023 457.00976562 C-172.22669594 455.19768616 -172.22669594 455.19768616 -172.56382751 453.34899902 C-172.81201282 452.03473611 -173.06026997 450.72048676 -173.30859375 449.40625 C-173.5574756 448.05406687 -173.80551534 446.7017285 -174.05274963 445.34924316 C-174.70488907 441.79188935 -175.36640533 438.23634915 -176.03051758 434.68121338 C-177.09213405 428.99150312 -178.14116836 423.29947607 -179.1870594 417.6068573 C-179.55358358 415.62089693 -179.92509779 413.63591789 -180.29722595 411.65100098 C-180.52068192 410.442948 -180.74413788 409.23489502 -180.97436523 407.99023438 C-181.17279526 406.92752319 -181.37122528 405.86481201 -181.57566833 404.76989746 C-182 402 -182 402 -182 398 C-182.66 397.67 -183.32 397.34 -184 397 C-183.67 396.67 -183.34 396.34 -183 396 C-183.31793695 393.47641136 -183.70171093 391.00253537 -184.14453125 388.5 C-184.27437912 387.74912109 -184.40422699 386.99824219 -184.53800964 386.22460938 C-184.81513216 384.63360106 -185.09527711 383.04311675 -185.37817383 381.453125 C-185.81034954 379.01214603 -186.2269761 376.56884828 -186.64257812 374.125 C-186.91311778 372.58316727 -187.18457166 371.04149462 -187.45703125 369.5 C-187.58108841 368.76458984 -187.70514557 368.02917969 -187.83296204 367.27148438 C-188.15499733 365.50082334 -188.56912239 363.74736708 -189 362 C-189.66 361.67 -190.32 361.34 -191 361 C-191 360.34 -191 359.68 -191 359 C-190.34 359 -189.68 359 -189 359 C-189.11593506 358.43603516 -189.23187012 357.87207031 -189.35131836 357.29101562 C-189.88319184 354.69464371 -190.41037146 352.09733924 -190.9375 349.5 C-191.11990234 348.613125 -191.30230469 347.72625 -191.49023438 346.8125 C-192.55412335 341.55108545 -193.40785806 336.3355105 -194 331 C-194.66 331 -195.32 331 -196 331 C-195.9071875 329.29457031 -195.9071875 329.29457031 -195.8125 327.5546875 C-195.8125 319.97291237 -197.56876125 312.54054572 -199 305.125 C-199.43046049 302.86291567 -199.8585913 300.60042373 -200.28393555 298.33737183 C-200.54762642 296.93774037 -200.81457713 295.53871807 -201.08520508 294.14041138 C-201.61235192 291.36957592 -202 288.82917746 -202 286 C-202.66 285.67 -203.32 285.34 -204 285 C-203.34 285 -202.68 285 -202 285 C-202.28109113 283.35232753 -202.57518526 281.70686855 -202.875 280.0625 C-203.03742188 279.14597656 -203.19984375 278.22945313 -203.3671875 277.28515625 C-203.68042969 276.15400391 -203.68042969 276.15400391 -204 275 C-204.66 274.67 -205.32 274.34 -206 274 C-205.34 274 -204.68 274 -204 274 C-204.28151087 272.68528432 -204.57553339 271.37324233 -204.875 270.0625 C-205.11863281 268.96615234 -205.11863281 268.96615234 -205.3671875 267.84765625 C-205.82961523 265.79299706 -205.82961523 265.79299706 -208 265 C-207.95875 264.05125 -207.9175 263.1025 -207.875 262.125 C-207.65026182 258.89755144 -207.65026182 258.89755144 -210 257 C-209.67 256.34 -209.34 255.68 -209 255 C-209.07185419 244.94041311 -211.25530371 234.87563936 -213 225 C-213.66 225 -214.32 225 -215 225 C-214.67 224.01 -214.34 223.02 -214 222 C-214.10197385 220.02436738 -214.10197385 220.02436738 -214.48828125 217.91015625 C-214.61783203 217.12576172 -214.74738281 216.34136719 -214.88085938 215.53320312 C-215.02330078 214.71787109 -215.16574219 213.90253906 -215.3125 213.0625 C-215.50875977 211.84530273 -215.50875977 211.84530273 -215.70898438 210.60351562 C-216.37380098 206.68848451 -217.08640562 203.51707666 -219 200 C-218.34 200 -217.68 200 -217 200 C-216.97421875 199.3709375 -216.9484375 198.741875 -216.921875 198.09375 C-216.355729 189.55009218 -213.81119056 183.37356384 -208 177 C-205.31767339 175.21178226 -202.69711039 173.79857396 -199.8125 172.375 C-198.91144531 171.92898437 -198.01039063 171.48296875 -197.08203125 171.0234375 C-196.39496094 170.68570313 -195.70789063 170.34796875 -195 170 C-195.78668518 168.37258256 -196.5795241 166.74813869 -197.375 165.125 C-197.81585938 164.22007812 -198.25671875 163.31515625 -198.7109375 162.3828125 C-199.90502699 159.90465528 -199.90502699 159.90465528 -202 158 C-202 156.68 -202 155.36 -202 154 C-202.30195787 152.63849351 -202.63753412 151.28416141 -203 149.9375 C-204.25980274 144.61438984 -204.18306531 139.4411079 -204 134 C-204.66 133.67 -205.32 133.34 -206 133 C-205.34 133 -204.68 133 -204 133 C-203.97873047 132.12601562 -203.97873047 132.12601562 -203.95703125 131.234375 C-203.19249776 118.09266426 -196.61141884 105.71862053 -187.10546875 96.6953125 C-176.47258767 88.13377189 -165.40659432 84.73914684 -152 84 C-152.0825 82.741875 -152.165 81.48375 -152.25 80.1875 C-152.1982795 69.17103389 -146.18263314 58.76069607 -138.96875 50.7421875 C-129.13317795 41.36988515 -116.11467107 36.22731871 -102.5625 35.625 C-92.96819814 36.01371941 -83.49390783 38.57328084 -75 43 C-75.226875 41.906875 -75.45375 40.81375 -75.6875 39.6875 C-75.790625 38.470625 -75.89375 37.25375 -76 36 C-75.03643039 34.96485093 -74.03156747 33.96740299 -73 33 C-72.00381335 31.00614357 -72.00381335 31.00614357 -71.1875 28.8125 C-69.11790116 23.93585906 -66.30767827 20.10296704 -63 16 C-62.071875 14.700625 -62.071875 14.700625 -61.125 13.375 C-56.14751531 7.81192887 -49.8666474 3.83571446 -43 1 C-42.10023438 0.62617188 -41.20046875 0.25234375 -40.2734375 -0.1328125 C-27.68606112 -4.68976142 -12.52623623 -5.02269537 0 0 Z M-208 255 C-207 257 -207 257 -207 257 Z " fill="#FCDEBA" transform="translate(298,8)"/>
<path d="M0 0 C34.32 0 68.64 0 104 0 C102.85281878 21.79644324 102.85281878 21.79644324 102.28125 30.1015625 C102.21844849 31.03318207 102.15564697 31.96480164 102.09094238 32.9246521 C101.89527866 35.8248591 101.69779811 38.72493786 101.5 41.625 C101.23863295 45.47129035 100.97836057 49.31765322 100.71875 53.1640625 C100.62460815 54.55072113 100.62460815 54.55072113 100.52856445 55.96539307 C100.23768739 60.28810669 99.95959402 64.61071184 99.71875 68.93652344 C99.67592896 69.70394867 99.63310791 70.4713739 99.58898926 71.26205444 C99.47740679 73.30262595 99.37034894 75.34344351 99.26367188 77.38427734 C99.09092368 79.75316698 98.83878394 82.11789058 98.49975586 84.46875 C97.95413214 88.32410004 97.71263324 92.15403937 97.53515625 96.0390625 C97.45644828 97.60677425 97.37766975 99.17448246 97.29882812 100.7421875 C97.18109292 103.1587812 97.06484641 105.57543394 96.95043945 107.9921875 C96.47262619 117.97547884 95.76507754 127.89682915 94.76834106 137.84197998 C93.71923327 148.50105196 93.09122193 159.18573973 92.4375 169.875 C92.24909538 172.94316566 92.05961778 176.0112458 91.86671448 179.07913208 C91.74827147 180.96330455 91.63232855 182.84763656 91.51939392 184.73214722 C91.21782298 189.53555311 90.71738882 194.23694339 90 199 C89.83547949 200.81069154 89.69175647 202.62341009 89.5703125 204.4375 C89.49876953 205.47729004 89.42722656 206.51708008 89.35351562 207.58837891 C89.24040039 209.27713135 89.24040039 209.27713135 89.125 211 C88.95150937 213.50788108 88.77696919 216.0156897 88.6015625 218.5234375 C88.55489441 219.19128265 88.50822632 219.85912781 88.46014404 220.54721069 C87.73048164 230.91810319 86.9146938 241.28263879 86.11035156 251.64794922 C86.01488037 252.87830399 86.01488037 252.87830399 85.91748047 254.1335144 C85.79091507 255.76448033 85.66428817 257.39544149 85.53759766 259.02639771 C85.14837897 264.04817887 84.7696369 269.07060423 84.3984375 274.09375 C84.30884766 275.29563965 84.21925781 276.4975293 84.12695312 277.73583984 C83.96432184 279.92348278 83.8039974 282.111299 83.64648438 284.29931641 C83.57494141 285.25499512 83.50339844 286.21067383 83.4296875 287.1953125 C83.37022949 288.01016113 83.31077148 288.82500977 83.24951172 289.66455078 C82.98601671 292.13088473 82.48644048 294.56779762 82 297 C61.54 297 41.08 297 20 297 C19.87625 290.5340625 19.87625 290.5340625 19.75 283.9375 C19.24393415 264.65772564 17.4430234 245.50229413 15.72132874 226.3006897 C14.87290293 216.75036822 14.19862266 207.19301345 13.59594727 197.62426758 C13.18958849 191.24880514 13.18958849 191.24880514 12.48046875 184.90234375 C11.77924015 179.20699929 11.61652466 173.50806255 11.39453125 167.77734375 C11.35714844 166.89175781 11.31976563 166.00617188 11.28125 165.09375 C11.25095703 164.30677734 11.22066406 163.51980469 11.18945312 162.70898438 C10.99031588 159.86152703 10.62119455 157.05154081 10.25521851 154.22158813 C9.78717675 150.14744776 9.56469248 146.0572459 9.31640625 141.96484375 C9.19332361 140.01342486 9.07019363 138.06200895 8.94702148 136.1105957 C8.85286453 134.59763412 8.85286453 134.59763412 8.75680542 133.05410767 C7.45684512 112.1784186 7.45684512 112.1784186 5.70166016 91.33740234 C4.74510754 80.90355899 4.2434949 70.43576465 3.69702148 59.97387695 C3.63828857 58.87635101 3.63828857 58.87635101 3.57836914 57.75665283 C3.47165658 55.75659545 3.36840078 53.75635449 3.26538086 51.75610352 C3.07782945 49.1015696 2.8325662 46.52190741 2.48852539 43.88916016 C2.07729428 40.61534127 1.82584049 37.4384182 1.71875 34.14453125 C1.68136719 33.11005859 1.64398438 32.07558594 1.60546875 31.00976562 C1.5347701 28.86654916 1.46446179 26.72331979 1.39453125 24.58007812 C1.35714844 23.54947266 1.31976563 22.51886719 1.28125 21.45703125 C1.25095703 20.52866455 1.22066406 19.60029785 1.18945312 18.64379883 C1.02589381 15.58552133 1.02589381 15.58552133 0 11 C0 7.37 0 3.74 0 0 Z " fill="#FDF0E5" transform="translate(223,229)"/>
<path d="M0 0 C10.15266151 -0.02312392 20.3053168 -0.04091534 30.45799923 -0.05181217 C35.17179733 -0.05704089 39.88557747 -0.06413834 44.59936523 -0.07543945 C49.14455404 -0.08626873 53.68972552 -0.09227692 58.23492622 -0.09487724 C59.97294958 -0.09673142 61.71097194 -0.10035189 63.44898796 -0.10573006 C65.87478595 -0.11294103 68.30051146 -0.11399092 70.72631836 -0.11352539 C71.45208069 -0.11712067 72.17784302 -0.12071594 72.92559814 -0.12442017 C77.88594784 -0.11405216 77.88594784 -0.11405216 79 1 C79.25571647 3.47400075 79.45055753 5.92877881 79.60888672 8.40966797 C79.72075918 10.0293095 79.83266903 11.64894845 79.9446106 13.26858521 C80.03206228 14.57104376 80.03206228 14.57104376 80.12128067 15.89981461 C81.23703027 32.43086592 82.54497316 48.9415576 84.0078125 65.4453125 C84.13704227 66.90352543 84.13704227 66.90352543 84.26888275 68.3911972 C84.79407 74.30375463 85.32451974 80.2158312 85.85620117 86.12780762 C86.22143003 90.20022546 86.58275618 94.27298613 86.9440937 98.34575081 C87.29607944 102.30928564 87.64996423 106.27264903 88.00448227 110.2359581 C88.1716005 112.10574003 88.33824946 113.97556397 88.50439835 115.84543228 C88.73430456 118.42853881 88.96665867 121.01141359 89.19970703 123.59423828 C89.26620453 124.34622498 89.33270203 125.09821167 89.4012146 125.87298584 C89.80135573 130.27309801 90.35351078 134.62767564 91 139 C91.14242784 140.68183004 91.26313076 142.36567739 91.359375 144.05078125 C92.49678084 162.31811775 94.2830498 180.49872144 96.14746094 198.7043457 C96.35880451 200.76903473 96.57006824 202.83373192 96.78125 204.8984375 C96.88488358 205.91119247 96.98851715 206.92394745 97.09529114 207.96739197 C97.88482667 215.73726779 98.60833543 223.51192603 99.30503845 231.2906189 C99.78732455 236.67516845 100.28666732 242.05740879 100.81640625 247.4375 C100.94080078 248.70207031 101.06519531 249.96664062 101.19335938 251.26953125 C101.44255331 253.78784031 101.69257314 256.30606776 101.94335938 258.82421875 C103.19468536 271.57333066 104.19165072 284.18069646 104 297 C98.00436173 297.09920868 92.009206 297.17162945 86.01293945 297.21972656 C83.97509432 297.23978632 81.93730634 297.26704099 79.8996582 297.30175781 C76.96290953 297.35052434 74.02692482 297.37302541 71.08984375 297.390625 C70.18540024 297.41127014 69.28095673 297.43191528 68.34910583 297.45318604 C61.22145457 297.45568897 57.45402575 295.59051931 51.75 291.3125 C46.2525444 284.0480051 45.82313335 273.76754653 44.46533203 265.00195312 C43.51536395 258.87351263 42.54129252 252.7488921 41.5625 246.625 C41.45406769 245.94552307 41.34563538 245.26604614 41.23391724 244.565979 C39.98496826 236.7635484 38.67724258 228.98607723 37.0625 221.25 C35.20605925 212.34801966 33.64966183 203.40091367 32.125 194.4375 C31.93519058 193.32233002 31.93519058 193.32233002 31.74154663 192.18463135 C30.95689506 187.57018164 30.17589662 182.95511826 29.39575195 178.33990479 C28.22774271 171.43398709 27.05362737 164.52911303 25.875 157.625 C25.74887329 156.88558167 25.62274658 156.14616333 25.49279785 155.38433838 C23.89421575 146.02662746 22.21891792 136.68890295 20.39794922 127.37158203 C18.97625459 120.04073745 17.74805838 112.68152089 16.56982422 105.30786133 C15.52709229 98.87233961 14.3313213 92.47441295 13.09375 86.07421875 C11.02758929 75.35118288 9.22912276 64.59432495 7.5 53.8125 C7.19662035 51.93138243 6.89315254 50.05027907 6.58959961 48.16918945 C5.85446641 43.60595484 5.12395597 39.04199644 4.39569092 34.47766113 C4.0295603 32.18509496 3.6618218 29.89279401 3.29345703 27.60058594 C2.70966372 23.9639544 2.13462445 20.32598737 1.5625 16.6875 C1.39878906 15.66438721 1.23507813 14.64127441 1.06640625 13.5871582 C0.92203125 12.65476318 0.77765625 11.72236816 0.62890625 10.76171875 C0.50588135 9.97756592 0.38285645 9.19341309 0.25610352 8.38549805 C-0.04523217 5.5786811 -0.01583959 2.82118426 0 0 Z " fill="#FDF2E5" transform="translate(113,229)"/>
<path d="M0 0 C25.41 0 50.82 0 77 0 C68.64441748 55.14684466 68.64441748 55.14684466 66.5 65.5 C63.60819555 79.49509643 61.63066966 93.67033436 59.55078125 107.8046875 C54.89724692 139.38560077 54.89724692 139.38560077 52.5390625 150.32592773 C50.71629465 158.95512739 49.38910411 167.66784094 48 176.375 C45.94286226 189.26338168 43.76832604 202.11639725 41.37744141 214.94775391 C40.51801724 219.62066434 39.76351288 224.31070831 39 229 C38.37216022 232.78329927 37.73974781 236.56583696 37.10742188 240.34838867 C36.54227187 243.73247535 35.98110203 247.11690676 35.43359375 250.50390625 C34.73232824 254.82745659 34.00555512 259.11113448 33 263.375 C32.09094493 267.26689201 31.534708 271.16481891 31 275.125 C29.06424581 288.74860335 29.06424581 288.74860335 23.92578125 292.859375 C17.40638154 296.72076388 12.38600619 297.42095351 4.91015625 297.29296875 C3.4933683 297.28660149 3.4933683 297.28660149 2.04795837 297.28010559 C-0.94749324 297.26340933 -3.9422542 297.22577406 -6.9375 297.1875 C-8.97720378 297.17244146 -11.01691817 297.1587551 -13.05664062 297.14648438 C-18.03802361 297.11353547 -23.01889499 297.06181604 -28 297 C-26.17823708 269.59154765 -26.17823708 269.59154765 -24.68017578 257.18066406 C-24.09851491 252.24864062 -23.74824949 247.33437333 -23.5 242.375 C-23.2349961 237.10010345 -22.78057695 231.92556517 -22.0625 226.6875 C-21.14598839 219.9291651 -20.63141187 213.17944767 -20.1875 206.375 C-18.61827087 182.87768541 -16.22531658 159.44210935 -14 136 C-13.77114609 133.58398558 -13.54230492 131.16796996 -13.31347656 128.75195312 C-12.64976277 121.75098769 -11.98187536 114.75042611 -11.3125 107.75 C-11.21013031 106.6762915 -11.10776062 105.60258301 -11.00228882 104.49633789 C-10.05270142 94.55169353 -9.08882379 84.61234817 -7.94921875 74.6875 C-6.99738526 66.35699082 -6.30984571 58.01523806 -5.68136597 49.65478516 C-5.36986039 45.52444029 -5.04524416 41.39511643 -4.72265625 37.265625 C-4.6600209 36.46104858 -4.59738556 35.65647217 -4.53285217 34.82751465 C-4.01817572 28.21686654 -3.50134338 21.60667304 -2.9375 15 C-2.87046875 14.14825195 -2.8034375 13.29650391 -2.734375 12.41894531 C-2.66605469 11.64131836 -2.59773438 10.86369141 -2.52734375 10.0625 C-2.47312256 9.41410156 -2.41890137 8.76570312 -2.36303711 8.09765625 C-1.88353276 5.32704337 -0.88916928 2.66750785 0 0 Z " fill="#FDEEE5" transform="translate(361,229)"/>
<path d="M0 0 C0.556875 0.144375 1.11375 0.28875 1.6875 0.4375 C4.11384195 1.02769128 6.54906345 1.523429 9 2 C9 2.33 9 2.66 9 3 C4.47462848 4.13378077 0.03116414 4.1426207 -4.60250854 4.13371277 C-5.90007794 4.1371111 -5.90007794 4.1371111 -7.22386086 4.14057809 C-10.12174765 4.14690692 -13.01958753 4.14608944 -15.91748047 4.14526367 C-17.99550436 4.14825585 -20.07352769 4.15165851 -22.15155029 4.15544128 C-27.79617527 4.16427923 -33.44078509 4.1666193 -39.08541632 4.16725707 C-43.79719138 4.16820653 -48.50896292 4.17188523 -53.22073662 4.17542917 C-64.33677545 4.18357284 -75.45280619 4.18601347 -86.56884766 4.18530273 C-98.03693602 4.18470185 -109.50497735 4.19525603 -120.97305381 4.2110464 C-130.81862003 4.22411983 -140.66417088 4.22948672 -150.50974572 4.22884732 C-156.39024071 4.22859229 -162.27069391 4.23144639 -168.15118027 4.24202538 C-173.68168219 4.25170308 -179.21210232 4.25178774 -184.74260712 4.24450874 C-186.77149449 4.24346252 -188.80038695 4.24582801 -190.82926559 4.2518692 C-193.60078134 4.25958667 -196.3720145 4.25494587 -199.14352417 4.24723816 C-199.94460472 4.25238172 -200.74568527 4.25752529 -201.57104099 4.26282471 C-206.41416973 4.23310156 -210.40099799 3.53673245 -215 2 C-212.50825702 1.13747358 -211.00924238 0.99836561 -208.38306999 1.4627676 C-204.40476533 2.09452342 -200.51177874 2.15318359 -196.49588013 2.15821838 C-195.65362534 2.16315636 -194.81137056 2.16809434 -193.94359291 2.17318195 C-191.12922662 2.18850592 -188.31488306 2.19690372 -185.50048828 2.20532227 C-183.4799225 2.2149048 -181.45935871 2.2249151 -179.438797 2.23532104 C-173.95793488 2.26233548 -168.47706417 2.28336379 -162.99617243 2.30332303 C-157.26662797 2.32520393 -151.53710986 2.35258233 -145.80758667 2.37937927 C-134.95989012 2.4292777 -124.11217893 2.47422711 -113.26445377 2.51740164 C-100.91386714 2.56679836 -88.56330695 2.62170747 -76.2127459 2.67708123 C-50.80852194 2.79085752 -25.40427261 2.89770605 0 3 C0 2.01 0 1.02 0 0 Z " fill="#F8BAC1" transform="translate(377,550)"/>
<path d="M0 0 C0.33 0 0.66 0 1 0 C1 44.88 1 89.76 1 136 C0.67 136 0.34 136 0 136 C0 91.12 0 46.24 0 0 Z " fill="#000000" transform="translate(558,146)"/>
<path d="M0 0 C0.33 0 0.66 0 1 0 C1 44.55 1 89.1 1 135 C0.67 135 0.34 135 0 135 C0 90.45 0 45.9 0 0 Z " fill="#241E1C" transform="translate(558,316)"/>
<path d="M0 0 C1.32 0.33 2.64 0.66 4 1 C3.07213211 2.00894372 2.13231567 3.00690907 1.1875 4 C0.40439453 4.8353125 0.40439453 4.8353125 -0.39453125 5.6875 C-2 7 -2 7 -5 7 C-6.20628008 9.33214148 -7.1654738 11.49642139 -8 14 C-8.66 14.66 -9.32 15.32 -10 16 C-10.33 16.66 -10.66 17.32 -11 18 C-11.66 18 -12.32 18 -13 18 C-11.63988394 12.54314884 -9.18354505 9.53987499 -5.375 5.625 C-4.859375 5.07972656 -4.34375 4.53445312 -3.8125 3.97265625 C-2.55023605 2.64026652 -1.27628255 1.31896759 0 0 Z " fill="#E3D2A4" transform="translate(113,103)"/>
<path d="M0 0 C0.33 0 0.66 0 1 0 C1.16898112 5.35810969 0.56511422 10.19349172 -0.5 15.4375 C-0.64308594 16.16904297 -0.78617187 16.90058594 -0.93359375 17.65429688 C-1.28321296 19.43735486 -1.64077688 21.21885203 -2 23 C-2.33 23 -2.66 23 -3 23 C-3.144375 22.21625 -3.28875 21.4325 -3.4375 20.625 C-3.87798925 18.03578982 -3.87798925 18.03578982 -5 16 C-4.66015625 14.0546875 -4.66015625 14.0546875 -4.0625 11.875 C-3.86785156 11.15054687 -3.67320312 10.42609375 -3.47265625 9.6796875 C-3.31667969 9.12539063 -3.16070312 8.57109375 -3 8 C-2.67 8 -2.34 8 -2 8 C-2 6.02 -2 4.04 -2 2 C-1.34 2 -0.68 2 0 2 C0 1.34 0 0.68 0 0 Z " fill="#B99697" transform="translate(418,496)"/>
<path d="M0 0 C0.66 0.33 1.32 0.66 2 1 C2 1.66 2 2.32 2 3 C0.34634594 4.02137457 -1.32376502 5.01612294 -3 6 C-4.05333488 6.90323466 -5.0949097 7.82034351 -6.125 8.75 C-7.548125 9.86375 -7.548125 9.86375 -9 11 C-9.99 10.67 -10.98 10.34 -12 10 C-8.55908927 5.49122043 -4.99252772 2.68828416 0 0 Z " fill="#DAC99C" transform="translate(98,180)"/>
<path d="M0 0 C5.15245057 1.41692391 9.82701421 3.64368446 14 7 C14.33 7.99 14.66 8.98 15 10 C8.93941903 8.60140439 4.57201885 5.05385671 0 1 C0 0.67 0 0.34 0 0 Z " fill="#E4B6BB" transform="translate(146,541)"/>
<path d="M0 0 C0.33 0 0.66 0 1 0 C1.08126087 2.08268593 1.13930839 4.16628658 1.1875 6.25 C1.22230469 7.41015625 1.25710938 8.5703125 1.29296875 9.765625 C0.97982934 13.22268407 0.34290892 14.51565563 -2 17 C-2.25060425 15.10688117 -2.47460633 13.21022961 -2.6875 11.3125 C-2.81511719 10.25675781 -2.94273437 9.20101563 -3.07421875 8.11328125 C-2.98856356 4.52027131 -2.13719363 2.84431449 0 0 Z " fill="#AE8F8E" transform="translate(426,451)"/>
<path d="M0 0 C0 0.33 0 0.66 0 1 C-14.59681093 2.33257403 -14.59681093 2.33257403 -22 1 C-22 0.67 -22 0.34 -22 0 C-14.56588188 -1.52494731 -7.43848839 -1.26612568 0 0 Z " fill="#EFDAA9" transform="translate(207,45)"/>
<path d="M0 0 C0.33 0 0.66 0 1 0 C2.24644886 9.87571023 2.24644886 9.87571023 1 15 C0.96175377 17.33301986 0.95425716 19.66711508 1 22 C0.34 22.33 -0.32 22.66 -1 23 C-1.09928082 15.24506486 -1.06059488 7.68931285 0 0 Z " fill="#FDD2CC" transform="translate(310,456)"/>
<path d="M0 0 C2.0625 1.3125 2.0625 1.3125 4 4 C4.05898893 7.72702755 3.58315738 11.32357303 3 15 C1.08697693 11.73386305 0.64325339 9.00554752 0.375 5.25 C0.30023438 4.26515625 0.22546875 3.2803125 0.1484375 2.265625 C0.09945312 1.51796875 0.05046875 0.7703125 0 0 Z " fill="#C6A09F" transform="translate(135,511)"/>
<path d="M0 0 C3.08325358 -0.0582253 6.16636505 -0.09367134 9.25 -0.125 C10.55904297 -0.15013672 10.55904297 -0.15013672 11.89453125 -0.17578125 C12.73886719 -0.18222656 13.58320313 -0.18867188 14.453125 -0.1953125 C15.22817383 -0.20578613 16.00322266 -0.21625977 16.80175781 -0.22705078 C19.25883539 0.02673444 20.87311542 0.77555848 23 2 C17.78766344 3.19067752 13.34254025 2.77438473 8.125 2.0625 C6.949375 1.91264648 6.949375 1.91264648 5.75 1.75976562 C3.83233162 1.51421053 1.91601075 1.25817071 0 1 C0 0.67 0 0.34 0 0 Z " fill="#F0DBAD" transform="translate(340,27)"/>
<path d="M0 0 C0.66 0.33 1.32 0.66 2 1 C0.92173635 2.27513763 -0.16285519 3.54492569 -1.25 4.8125 C-1.85328125 5.52019531 -2.4565625 6.22789063 -3.078125 6.95703125 C-4.92370398 8.91889671 -6.79945332 10.45669625 -9 12 C-9.66 11.67 -10.32 11.34 -11 11 C-7.6381774 6.74828319 -4.25171681 3.3618226 0 0 Z " fill="#D0C496" transform="translate(245,14)"/>
<path d="M0 0 C1 3 1 3 0.00390625 5.48046875 C-0.47175781 6.37378906 -0.94742187 7.26710938 -1.4375 8.1875 C-1.91058594 9.08855469 -2.38367188 9.98960937 -2.87109375 10.91796875 C-3.24363281 11.60503906 -3.61617188 12.29210937 -4 13 C-4.66 11.68 -5.32 10.36 -6 9 C-4.68 8.34 -3.36 7.68 -2 7 C-2.226875 6.401875 -2.45375 5.80375 -2.6875 5.1875 C-2.790625 4.465625 -2.89375 3.74375 -3 3 C-1.5625 1.25 -1.5625 1.25 0 0 Z " fill="#BE989A" transform="translate(413,524)"/>
<path d="M0 0 C0.33 0.99 0.66 1.98 1 3 C-0.41488448 5.76239351 -1.80363095 7.80363095 -4 10 C-4.33 10.66 -4.66 11.32 -5 12 C-5.66 12 -6.32 12 -7 12 C-5.63855967 6.80177328 -3.53269829 3.90456127 0 0 Z " fill="#C7B88D" transform="translate(107,109)"/>
<path d="M0 0 C0.33 0 0.66 0 1 0 C1 3.3 1 6.6 1 10 C0.01 9.67 -0.98 9.34 -2 9 C-2.25 3.375 -2.25 3.375 0 0 Z " fill="#E6B9BC" transform="translate(414,513)"/>
<path d="M0 0 C0.8125 1.6875 0.8125 1.6875 1 4 C-1.46026571 6.87030999 -3.85489214 8.90326143 -7 11 C-5.5140084 6.40693504 -3.14985318 3.56430755 0 0 Z " fill="#C8BC90" transform="translate(159,59)"/>
<path d="M0 0 C0.99 0 1.98 0 3 0 C2.67 3.3 2.34 6.6 2 10 C1.67 10 1.34 10 1 10 C0.67 6.7 0.34 3.4 0 0 Z " fill="#B39090" transform="translate(420,474)"/>
<path d="M0 0 C3.25543229 0.34879632 4.01873107 1.02133261 6.25 3.5625 C6.8275 4.366875 7.405 5.17125 8 6 C5 6 5 6 3.61328125 4.6875 C2.40885417 3.125 1.20442708 1.5625 0 0 Z " fill="#D0C39A" transform="translate(310,17)"/>
<path d="M0 0 C1.32 0.66 2.64 1.32 4 2 C1.69 3.32 -0.62 4.64 -3 6 C-3 3 -3 3 -1.5 1.3125 C-0.7575 0.6628125 -0.7575 0.6628125 0 0 Z " fill="#D0A7AA" transform="translate(396,544)"/>
<path d="M0 0 C2.9375 0.75 2.9375 0.75 6 2 C6.875 4.125 6.875 4.125 7 6 C1.125 2.25 1.125 2.25 0 0 Z " fill="#D1A7A9" transform="translate(146,541)"/>
<path d="M0 0 C-0.33 0.66 -0.66 1.32 -1 2 C-3.32156597 2.40729228 -5.6568787 2.74438677 -8 3 C-8 2.34 -8 1.68 -8 1 C-2.25 -1.125 -2.25 -1.125 0 0 Z " fill="#E7D8AC" transform="translate(260,9)"/>
<path d="M0 0 C0.99 0.33 1.98 0.66 3 1 C2.01 1 1.02 1 0 1 C0 0.67 0 0.34 0 0 Z " fill="#7F7F7F" transform="translate(160,552)"/>
<path d="" fill="#8D8D8D" transform="translate(0,0)"/>
<path d="M0 0 C3 1 3 1 3 1 Z " fill="#AAAA54" transform="translate(136,91)"/>
<path d="M0 0 C3 1 3 1 3 1 Z " fill="#D9D9AE" transform="translate(270,3)"/>
<path d="M0 0 C2 1 2 1 2 1 Z " fill="#555555" transform="translate(429,544)"/>
<path d="M0 0 C2 1 2 1 2 1 Z " fill="#7F5555" transform="translate(429,536)"/>
<path d="M0 0 C2 1 2 1 2 1 Z " fill="#7F3F3F" transform="translate(429,528)"/>
<path d="M0 0 C2 1 2 1 2 1 Z " fill="#7F7F7F" transform="translate(429,496)"/>
<path d="M0 0 C2 1 2 1 2 1 Z " fill="#7F7F7F" transform="translate(429,488)"/>
<path d="M0 0 C2 1 2 1 2 1 Z " fill="#7F7F7F" transform="translate(429,480)"/>
<path d="M0 0 C2 1 2 1 2 1 Z " fill="#7F5F5F" transform="translate(429,472)"/>
<path d="M0 0 C2 1 2 1 2 1 Z " fill="#7F7F7F" transform="translate(429,464)"/>
<path d="M0 0 C2 1 2 1 2 1 Z " fill="#7F5555" transform="translate(429,456)"/>
<path d="" fill="#8D8D8D" transform="translate(0,0)"/>
<path d="" fill="#8D8D8D" transform="translate(0,0)"/>
<path d="" fill="#8D8D8D" transform="translate(0,0)"/>
<path d="M0 0 C2 1 2 1 2 1 Z " fill="#7F7F3F" transform="translate(445,176)"/>
<path d="M0 0 C2 1 2 1 2 1 Z " fill="#7F7F3F" transform="translate(429,64)"/>
<path d="M0 0 C2 1 2 1 2 1 Z " fill="#7F7F55" transform="translate(247,11)"/>
<path d="M0 0 C2 1 2 1 2 1 Z " fill="#3F3F3F" transform="translate(429,8)"/>
<path d="M0 0 C2 1 2 1 2 1 Z " fill="#3F3F3F" transform="translate(429,0)"/>
<path d="" fill="#000000" transform="translate(0,0)"/>
<path d="" fill="#8D8D8D" transform="translate(0,0)"/>
<path d="" fill="#8D8D8D" transform="translate(0,0)"/>
<path d="" fill="#000000" transform="translate(0,0)"/>
<path d="" fill="#8D0000" transform="translate(0,0)"/>
<path d="" fill="#8D8D8D" transform="translate(0,0)"/>
<path d="" fill="#8D0000" transform="translate(0,0)"/>
<path d="" fill="#8D8D8D" transform="translate(0,0)"/>
<path d="" fill="#8D0000" transform="translate(0,0)"/>
<path d="" fill="#8D8D8D" transform="translate(0,0)"/>
<path d="" fill="#8D0000" transform="translate(0,0)"/>
<path d="" fill="#8D8D8D" transform="translate(0,0)"/>
<path d="" fill="#8D8D8D" transform="translate(0,0)"/>
<path d="" fill="#8D0000" transform="translate(0,0)"/>
<path d="" fill="#8D0000" transform="translate(0,0)"/>
<path d="" fill="#8D8D8D" transform="translate(0,0)"/>
<path d="" fill="#8D8D8D" transform="translate(0,0)"/>
<path d="" fill="#8D0000" transform="translate(0,0)"/>
<path d="" fill="#8D8D8D" transform="translate(0,0)"/>
<path d="" fill="#8D8D00" transform="translate(0,0)"/>
<path d="" fill="#8D8D8D" transform="translate(0,0)"/>
<path d="" fill="#000000" transform="translate(0,0)"/>
<path d="" fill="#8D8D8D" transform="translate(0,0)"/>
<path d="" fill="#8D8D8D" transform="translate(0,0)"/>
<path d="" fill="#8D8D8D" transform="translate(0,0)"/>
<path d="" fill="#8D8D8D" transform="translate(0,0)"/>
<path d="" fill="#8D8D00" transform="translate(0,0)"/>
<path d="" fill="#8D8D8D" transform="translate(0,0)"/>
<path d="" fill="#8D8D8D" transform="translate(0,0)"/>
<path d="" fill="#8D8D00" transform="translate(0,0)"/>
<path d="" fill="#000000" transform="translate(0,0)"/>
<path d="" fill="#8D8D8D" transform="translate(0,0)"/>
<path d="" fill="#8D8D8D" transform="translate(0,0)"/>
<path d="" fill="#8D8D8D" transform="translate(0,0)"/>
<path d="" fill="#000000" transform="translate(0,0)"/>
<path d="" fill="#8D8D8D" transform="translate(0,0)"/>
<path d="" fill="#090405" transform="translate(0,0)"/>
<path d="" fill="#8D8D8D" transform="translate(0,0)"/>
<path d="" fill="#8D8D8D" transform="translate(0,0)"/>
<path d="" fill="#8D8D8D" transform="translate(0,0)"/>
<path d="" fill="#8D8D8D" transform="translate(0,0)"/>
<path d="" fill="#8D8D8D" transform="translate(0,0)"/>
<path d="" fill="#000000" transform="translate(0,0)"/>
<path d="" fill="#000000" transform="translate(0,0)"/>
<path d="" fill="#8D8D8D" transform="translate(0,0)"/>
<path d="" fill="#8D8D8D" transform="translate(0,0)"/>
<path d="" fill="#8D8D8D" transform="translate(0,0)"/>
<path d="" fill="#8D8D8D" transform="translate(0,0)"/>
<path d="" fill="#8D8D8D" transform="translate(0,0)"/>
<path d="" fill="#8D8D8D" transform="translate(0,0)"/>
<path d="" fill="#8D8D8D" transform="translate(0,0)"/>
<path d="" fill="#8D8D8D" transform="translate(0,0)"/>
<path d="" fill="#8D8D8D" transform="translate(0,0)"/>
<path d="" fill="#8D8D8D" transform="translate(0,0)"/>
<path d="" fill="#8D0000" transform="translate(0,0)"/>
<path d="" fill="#8D8D8D" transform="translate(0,0)"/>
<path d="" fill="#8D0000" transform="translate(0,0)"/>
<path d="" fill="#8D0000" transform="translate(0,0)"/>
<path d="" fill="#8D8D8D" transform="translate(0,0)"/>
<path d="" fill="#000000" transform="translate(0,0)"/>
<path d="" fill="#8D8D8D" transform="translate(0,0)"/>
<path d="" fill="#8D8D8D" transform="translate(0,0)"/>
</svg>
